HIERARCHY
ROOT Hips
{
	OFFSET 0.000000 0.000000 0.000000 
	CHANNELS 6 Xposition Yposition Zposition Zrotation Yrotation Xrotation
	JOINT LeftUpLeg
	{
		OFFSET 1.363060 -1.794630 0.839290 
		CHANNELS 3 Zrotation Yrotation Xrotation
		JOINT LeftLeg
		{
			OFFSET 2.448110 -6.726130 0.000000 
			CHANNELS 3 Zrotation Yrotation Xrotation
			JOINT LeftFoot
			{
				OFFSET 2.562200 -7.039590 0.000000 
				CHANNELS 3 Zrotation Yrotation Xrotation
				JOINT LeftToeBase
				{
					OFFSET 0.157640 -0.433110 2.322550 
					CHANNELS 3 Zrotation Yrotation Xrotation
					End Site
					{
						OFFSET 0.000000 0.000000 0.000000 
					}
				}
			}
		}
	}
	JOINT RightUpLeg
	{
		OFFSET -1.305520 -1.794630 0.839290 
		CHANNELS 3 Zrotation Yrotation Xrotation
		JOINT RightLeg
		{
			OFFSET -2.542530 -6.985550 0.000000 
			CHANNELS 3 Zrotation Yrotation Xrotation
			JOINT RightFoot
			{
				OFFSET -2.568260 -7.056230 0.000000 
				CHANNELS 3 Zrotation Yrotation Xrotation
				JOINT RightToeBase
				{
					OFFSET -0.164730 -0.452590 2.363150 
					CHANNELS 3 Zrotation Yrotation Xrotation
					End Site
					{
						OFFSET 0.000000 0.000000 0.000000 
					}
				}
			}
		}
	}
	JOINT Spine
	{
		OFFSET 0.028270 2.035590 -0.193380 
		CHANNELS 3 Zrotation Yrotation Xrotation
		JOINT Spine1
		{
			OFFSET 0.056720 2.048850 -0.042750 
			CHANNELS 3 Zrotation Yrotation Xrotation
			JOINT Neck1
			{
				OFFSET -0.054170 1.746240 0.172020 
				CHANNELS 3 Zrotation Yrotation Xrotation
				JOINT Head
				{
					OFFSET 0.104070 1.761360 -0.123970 
					CHANNELS 3 Zrotation Yrotation Xrotation
					End Site
					{
						OFFSET 0.000000 0.000000 0.000000 
					}
				}
			}
			JOINT LeftArm
			{
				OFFSET 3.362410 1.200890 -0.311210 
				CHANNELS 3 Zrotation Yrotation Xrotation
				JOINT LeftForeArm
				{
					OFFSET 4.983000 -0.000000 -0.000000 
					CHANNELS 3 Zrotation Yrotation Xrotation
					JOINT LeftHand
					{
						OFFSET 3.483560 -0.000000 -0.000000 
						CHANNELS 3 Zrotation Yrotation Xrotation
						JOINT LeftHandIndex1
						{
							OFFSET 0.715260 -0.000000 -0.000000 
							CHANNELS 3 Zrotation Yrotation Xrotation
							End Site
							{
								OFFSET 0.000000 0.000000 0.000000 
							}
						}
					}
				}
			}
			JOINT RightArm
			{
				OFFSET -3.136600 1.374050 -0.404650 
				CHANNELS 3 Zrotation Yrotation Xrotation
				JOINT RightForeArm
				{
					OFFSET -5.241900 -0.000000 -0.000000 
					CHANNELS 3 Zrotation Yrotation Xrotation
					JOINT RightHand
					{
						OFFSET -3.444170 -0.000000 -0.000000 
						CHANNELS 3 Zrotation Yrotation Xrotation
						JOINT RightHandIndex1
						{
							OFFSET -0.622530 -0.000000 -0.000000 
							CHANNELS 3 Zrotation Yrotation Xrotation
							End Site
							{
								OFFSET 0.000000 0.000000 0.000000 
							}
						}
					}
				}
			}
		}
	}
}
MOTION
Frames: 12
Frame Time: 0.041667
1.102875 17.863432 -7.997352 -6.281211 -6.206498 10.127469 -8.616378 -3.529285 -22.696839 2.194910 11.694155 34.139519 0.072401 2.523299 -9.895414 0.083800 -1.866800 -5.137800 16.763103 7.379605 -17.017354 -2.374413 -10.292590 29.497613 0.022904 -2.674529 -9.710184 -0.012700 -0.727500 1.999400 5.935612 0.133490 0.317101 5.202460 0.061268 2.265879 -0.578440 -2.019080 31.009471 -2.123200 -0.779900 17.117800 -92.052697 -3.849718 35.053607 12.167711 -21.941768 -1.848572 1.005552 0.422702 0.801006 -7.125000 0.000000 0.000000 85.414883 2.585724 30.578770 -15.239839 26.518389 -3.231019 0.110303 0.247187 -11.145666 7.125000 0.000000 0.000000 
1.097658 17.871058 -8.001466 -6.316337 -6.152973 10.198476 -8.570381 -3.492874 -22.798044 2.190880 11.690196 34.114847 0.071018 2.506847 -9.811109 0.102600 -2.065700 -5.687200 16.803565 7.231388 -17.089123 -2.344386 -10.237192 29.325395 0.002894 -2.512327 -9.508184 -0.020100 -0.915400 2.516100 6.000422 0.173881 0.356903 5.184136 0.082012 2.344559 -0.612698 -1.653571 31.314836 -2.088100 -0.624600 17.310600 -92.050619 -3.993597 35.326800 12.278140 -22.129038 -1.892692 1.004709 0.421731 0.520785 -7.125000 0.000000 0.000000 85.336905 2.765562 30.656003 -15.276372 26.573602 -3.248225 0.109916 0.245705 -11.148368 7.125000 0.000000 0.000000 
1.091538 17.872563 -8.004476 -6.382252 -6.101263 10.274184 -8.455849 -3.613045 -22.837215 2.184118 11.682548 34.079814 0.048626 2.583348 -9.724311 0.105500 -2.094800 -5.767600 16.879594 7.215527 -17.163646 -2.338929 -10.218667 29.281776 -0.024279 -2.351746 -9.466324 -0.035600 -1.218500 3.350200 6.050890 0.213291 0.412417 5.134082 0.104797 2.460486 -0.739701 -1.329163 31.372566 -2.112000 -0.493700 17.320200 -92.047325 -4.193000 35.579486 12.334702 -22.229659 -1.918532 1.004490 0.416780 0.078945 -7.125000 0.000000 0.000000 85.299115 2.904940 30.739859 -15.325455 26.646009 -3.271217 0.110534 0.243114 -11.113157 7.125000 0.000000 0.000000 
1.082809 17.873165 -8.006081 -6.385679 -5.964692 10.256768 -8.375182 -3.832248 -22.752984 2.177396 11.671541 34.047846 0.061108 2.526134 -9.723434 0.072400 -1.736400 -4.777800 16.923659 7.194895 -17.124976 -2.327949 -10.205324 29.232071 -0.007695 -2.468228 -9.559158 -0.018300 -0.873100 2.399600 6.081971 0.223080 0.505905 5.130128 0.110661 2.570935 -0.844583 -1.039258 31.585191 -2.131500 -0.371400 17.437500 -92.051519 -4.344565 35.775847 12.391893 -22.333636 -1.949948 1.002316 0.404280 -0.355968 -7.125000 0.000000 0.000000 85.266664 2.966846 30.842358 -15.386960 26.732545 -3.295041 0.112469 0.243371 -11.048087 7.125000 0.000000 0.000000 
1.072474 17.874268 -8.007386 -6.359351 -5.773193 10.185495 -8.325739 -3.949613 -22.671661 2.175582 11.662064 34.028787 0.113981 2.297829 -9.761118 0.051700 -1.467100 -4.035100 16.975663 7.045232 -17.101647 -2.324171 -10.207767 29.225214 0.004576 -2.565983 -9.665607 -0.005700 -0.489700 1.345500 6.015006 0.254711 0.660138 5.090490 0.127132 2.693555 -0.980652 -0.853720 31.808409 -2.211000 -0.273200 17.590100 -91.931197 -4.528474 36.135733 12.506748 -22.528676 -1.999106 0.999254 0.405114 -0.754934 -7.125000 0.000000 0.000000 85.336589 3.056682 30.843922 -15.419733 26.776568 -3.304712 0.113102 0.246043 -10.876366 7.125000 0.000000 0.000000 
1.062942 17.875773 -8.008088 -6.389410 -5.613835 10.149782 -8.250438 -3.895472 -22.667867 2.175005 11.656499 34.008099 0.157455 2.100232 -9.744586 0.060600 -1.588600 -4.369900 17.085726 6.946268 -17.078066 -2.323330 -10.211953 29.227000 0.010094 -2.610901 -9.712948 -0.004900 -0.452900 1.244400 5.878075 0.337891 0.466202 4.918837 0.170859 2.439386 -1.078322 -0.702131 32.094079 -2.285000 -0.171900 17.732600 -91.668821 -4.364401 36.514424 12.681731 -22.815603 -2.063229 0.997887 0.421802 -1.055852 -7.125000 0.000000 0.000000 85.485487 2.884175 30.807861 -15.417299 26.771377 -3.301525 0.113419 0.248513 -10.754683 7.125000 0.000000 0.000000 
1.052809 17.876074 -8.009091 -6.388542 -5.500037 10.089881 -8.230095 -3.756497 -22.685814 2.176772 11.653277 33.998816 0.171803 1.999436 -9.613976 0.072300 -1.735000 -4.773900 17.149747 6.913961 -17.010454 -2.322033 -10.216008 29.228027 0.025766 -2.706733 -9.748094 -0.004600 -0.438100 1.203700 5.812582 0.415280 0.395348 4.826175 0.210259 2.310996 -1.097974 -0.541698 32.296871 -2.287600 -0.085700 17.822100 -91.549194 -4.327310 36.749414 12.820412 -23.038003 -2.109386 0.997820 0.440639 -1.197511 -7.125000 0.000000 0.000000 85.542942 2.849178 30.742301 -15.397402 26.743332 -3.291460 0.114828 0.250570 -10.699825 7.125000 0.000000 0.000000 
1.042575 17.875773 -8.010295 -6.361812 -5.399511 10.063006 -8.218157 -3.698486 -22.705084 2.178474 11.651104 33.994619 0.189207 1.898431 -9.535961 0.073300 -1.746500 -4.805700 17.180090 6.710319 -17.057805 -2.320916 -10.217240 29.223679 0.009783 -2.613796 -9.717107 -0.005300 -0.472200 1.297500 5.814353 0.451624 0.405308 4.819729 0.228361 2.307979 -1.135671 -0.346342 32.459202 -2.280700 -0.000500 17.896600 -91.546514 -4.391182 36.793586 12.928483 -23.216397 -2.154838 0.993570 0.444466 -1.252166 -7.125000 0.000000 0.000000 85.504091 2.856622 30.811166 -15.435099 26.798409 -3.308544 0.115880 0.249035 -10.751608 7.125000 0.000000 0.000000 
1.033544 17.875472 -8.009994 -6.347830 -5.325887 10.082147 -8.191190 -3.695390 -22.730516 2.178310 11.648237 33.985186 0.224649 1.745863 -9.560777 0.065400 -1.649600 -4.538100 17.206973 6.485925 -17.163776 -2.320632 -10.216753 29.219442 -0.003774 -2.521443 -9.640998 -0.002400 -0.314900 0.865300 5.878272 0.453594 0.389605 4.860476 0.229912 2.314136 -1.223815 -0.087542 32.604976 -2.286100 0.099400 17.978100 -91.595086 -4.378629 36.743432 13.039828 -23.404617 -2.211306 0.987567 0.432481 -1.329624 -7.125000 0.000000 0.000000 85.399107 2.828182 30.983468 -15.499023 26.891255 -3.339429 0.116445 0.244734 -10.811487 7.125000 0.000000 0.000000 
1.025417 17.875673 -8.007185 -6.328447 -5.329209 10.068876 -8.202361 -3.615502 -22.735217 2.178094 11.645223 33.978721 0.238855 1.682734 -9.563051 0.065200 -1.647300 -4.531900 17.211135 6.506428 -17.119696 -2.318774 -10.217229 29.214552 0.012641 -2.611775 -9.641724 -0.000100 -0.074100 0.203700 5.949243 0.489471 0.399770 4.911002 0.248771 2.313771 -1.329178 0.157139 32.736694 -2.300200 0.188100 18.065700 -91.643872 -4.379127 36.811210 13.149980 -23.580124 -2.253216 0.986734 0.437528 -1.462932 -7.125000 0.000000 0.000000 85.290386 2.848814 31.107373 -15.480889 26.864660 -3.332908 0.115433 0.243974 -10.804362 7.125000 0.000000 0.000000 
1.018595 17.875974 -8.004877 -6.311060 -5.361447 10.056497 -8.212842 -3.551867 -22.732921 2.178701 11.644719 33.978806 0.232329 1.700020 -9.520240 0.073900 -1.754000 -4.826300 17.211671 6.572293 -17.053089 -2.313891 -10.211954 29.192160 0.023383 -2.673083 -9.652931 -0.000000 -0.032900 0.090400 5.931082 0.580717 0.378235 4.878236 0.295241 2.277351 -1.384234 0.292141 32.836028 -2.311300 0.244200 18.108800 -91.656141 -4.434471 36.835872 13.199310 -23.653974 -2.262778 0.989163 0.451666 -1.452400 -7.125000 0.000000 0.000000 85.247488 2.851845 31.178033 -15.429197 26.787379 -3.310633 0.113052 0.245298 -10.787283 7.125000 0.000000 0.000000 
1.011471 17.876777 -8.004677 -6.321793 -5.352062 10.062060 -8.180490 -3.494682 -22.766917 2.182150 11.648377 33.986304 0.225074 1.714518 -9.451209 0.088300 -1.917000 -5.276500 17.252828 6.544719 -17.047998 -2.305975 -10.199456 29.150903 0.027702 -2.699342 -9.661451 -0.000100 0.050200 -0.137800 5.872198 0.674185 0.327845 4.801278 0.341883 2.225327 -1.343997 0.331653 32.941492 -2.291900 0.276800 18.141900 -91.653664 -4.488550 36.736609 13.195745 -23.653218 -2.261948 0.991292 0.446434 -1.216566 -7.125000 0.000000 0.000000 85.282754 2.828895 30.996132 -15.380594 26.721910 -3.293218 0.116138 0.243250 -10.338070 7.125000 0.000000 0.000000 
